<svg width="202" height="34" viewBox="0 0 202 34" fill="none" xmlns="http://www.w3.org/2000/svg">
<g filter="url(#filter0_d)">
<path d="M8.3 25.036C6.596 25.036 5.324 25.024 4.484 25V1.024C5.516 0.999999 7.04 0.987998 9.056 0.987998C11.096 0.987998 12.62 0.999999 13.628 1.024C15.98 1.048 18.02 1.528 19.748 2.464C21.5 3.376 22.844 4.684 23.78 6.388C24.74 8.092 25.22 10.084 25.22 12.364C25.22 14.86 24.668 17.056 23.564 18.952C22.484 20.848 20.948 22.324 18.956 23.38C16.988 24.436 14.696 24.976 12.08 25C11.24 25.024 9.98 25.036 8.3 25.036ZM12.044 20.464C14.468 20.464 16.376 19.756 17.768 18.34C19.16 16.924 19.856 14.98 19.856 12.508C19.856 10.276 19.256 8.56 18.056 7.36C16.88 6.16 15.176 5.56 12.944 5.56H9.704V20.464H12.044ZM43.321 22.84C42.337 23.68 41.149 24.34 39.757 24.82C38.389 25.3 36.973 25.54 35.509 25.54C33.205 25.54 31.357 24.976 29.965 23.848C28.597 22.696 27.913 21.148 27.913 19.204C27.913 17.596 28.345 16.228 29.209 15.1C30.097 13.948 31.249 12.88 32.665 11.896C31.777 10.84 31.165 9.904 30.829 9.088C30.493 8.248 30.325 7.396 30.325 6.532C30.325 4.636 30.949 3.148 32.197 2.068C33.445 0.987999 35.005 0.447999 36.877 0.447999C38.629 0.447999 40.009 0.915999 41.017 1.852C42.049 2.788 42.565 4.048 42.565 5.632C42.565 6.904 42.229 8.056 41.557 9.088C40.909 10.12 40.009 11.128 38.857 12.112L42.817 16.144C43.177 14.92 43.405 13.42 43.501 11.644L48.109 11.068C48.133 14.332 47.509 17.164 46.237 19.564L50.017 23.56L46.129 25.792L43.321 22.84ZM36.229 9.232C37.573 8.128 38.245 7.024 38.245 5.92C38.245 5.392 38.089 4.984 37.777 4.696C37.465 4.408 37.081 4.264 36.625 4.264C36.121 4.264 35.677 4.444 35.293 4.804C34.909 5.14 34.717 5.632 34.717 6.28C34.717 6.664 34.825 7.084 35.041 7.54C35.257 7.972 35.653 8.536 36.229 9.232ZM36.157 21.436C36.949 21.436 37.717 21.292 38.461 21.004C39.229 20.716 39.877 20.332 40.405 19.852L39.757 19.24C36.805 16.288 35.329 14.812 35.329 14.812C34.369 15.46 33.673 16.096 33.241 16.72C32.833 17.344 32.629 17.992 32.629 18.664C32.629 19.6 32.965 20.296 33.637 20.752C34.333 21.208 35.173 21.436 36.157 21.436ZM64.2668 25.468C60.4268 25.468 57.4268 24.436 55.2668 22.372C53.1068 20.308 52.0268 17.392 52.0268 13.624C52.0268 11.056 52.5308 8.788 53.5388 6.82C54.5708 4.852 56.0228 3.34 57.8948 2.284C59.7668 1.204 61.9268 0.663998 64.3748 0.663998C66.3668 0.663998 68.2868 1.024 70.1348 1.744L69.1628 6.388C67.5308 5.644 65.9468 5.272 64.4108 5.272C62.2268 5.272 60.4988 5.992 59.2268 7.432C57.9548 8.848 57.3188 10.744 57.3188 13.12C57.3188 15.544 57.9908 17.428 59.3348 18.772C60.6788 20.116 62.5388 20.788 64.9148 20.788C66.4748 20.788 67.9868 20.536 69.4508 20.032L70.2428 24.46C68.4908 25.132 66.4988 25.468 64.2668 25.468ZM82.4119 25.54C80.5399 25.54 78.8839 25.132 77.4439 24.316C76.0279 23.5 74.9239 22.36 74.1319 20.896C73.3399 19.408 72.9439 17.692 72.9439 15.748C72.9439 13.804 73.3279 12.1 74.0959 10.636C74.8879 9.148 75.9919 7.996 77.4079 7.18C78.8479 6.364 80.5039 5.956 82.3759 5.956C84.2479 5.956 85.8919 6.364 87.3079 7.18C88.7479 7.972 89.8519 9.1 90.6199 10.564C91.4119 12.028 91.8079 13.72 91.8079 15.64C91.8079 17.584 91.4119 19.312 90.6199 20.824C89.8519 22.312 88.7479 23.476 87.3079 24.316C85.8919 25.132 84.2599 25.54 82.4119 25.54ZM82.3759 21.148C83.6719 21.148 84.7039 20.656 85.4719 19.672C86.2639 18.664 86.6599 17.344 86.6599 15.712C86.6599 14.08 86.2639 12.784 85.4719 11.824C84.7039 10.84 83.6719 10.348 82.3759 10.348C81.0799 10.348 80.0359 10.84 79.2439 11.824C78.4759 12.784 78.0919 14.08 78.0919 15.712C78.0919 17.344 78.4759 18.664 79.2439 19.672C80.0359 20.656 81.0799 21.148 82.3759 21.148ZM95.7505 1.024H101.006V10.312H111.194V1.024H116.486V25H111.194V14.776H101.006V25H95.7505V1.024ZM129.908 25.54C128.036 25.54 126.38 25.132 124.94 24.316C123.524 23.5 122.42 22.36 121.628 20.896C120.836 19.408 120.44 17.692 120.44 15.748C120.44 13.804 120.824 12.1 121.592 10.636C122.384 9.148 123.488 7.996 124.904 7.18C126.344 6.364 128 5.956 129.872 5.956C131.744 5.956 133.388 6.364 134.804 7.18C136.244 7.972 137.348 9.1 138.116 10.564C138.908 12.028 139.304 13.72 139.304 15.64C139.304 17.584 138.908 19.312 138.116 20.824C137.348 22.312 136.244 23.476 134.804 24.316C133.388 25.132 131.756 25.54 129.908 25.54ZM129.872 21.148C131.168 21.148 132.2 20.656 132.968 19.672C133.76 18.664 134.156 17.344 134.156 15.712C134.156 14.08 133.76 12.784 132.968 11.824C132.2 10.84 131.168 10.348 129.872 10.348C128.576 10.348 127.532 10.84 126.74 11.824C125.972 12.784 125.588 14.08 125.588 15.712C125.588 17.344 125.972 18.664 126.74 19.672C127.532 20.656 128.576 21.148 129.872 21.148ZM149.398 25.504C147.43 25.504 145.882 24.904 144.754 23.704C143.626 22.504 143.062 20.86 143.062 18.772V6.46H148.138V17.944C148.138 18.928 148.378 19.696 148.858 20.248C149.338 20.776 149.986 21.04 150.802 21.04C151.618 21.04 152.398 20.776 153.142 20.248C153.91 19.72 154.546 19.012 155.05 18.124V6.46H160.126V25H155.05V22.552C154.354 23.488 153.55 24.22 152.638 24.748C151.75 25.252 150.67 25.504 149.398 25.504ZM170.157 25.54C168.981 25.54 167.841 25.42 166.737 25.18C165.657 24.94 164.733 24.616 163.965 24.208L164.433 19.888C165.249 20.392 166.149 20.8 167.133 21.112C168.117 21.424 169.041 21.58 169.905 21.58C170.721 21.58 171.405 21.436 171.957 21.148C172.509 20.836 172.785 20.392 172.785 19.816C172.785 19.36 172.593 19.012 172.209 18.772C171.825 18.508 171.093 18.184 170.013 17.8L169.041 17.44C168.009 17.056 167.169 16.696 166.521 16.36C165.873 16 165.285 15.46 164.757 14.74C164.229 14.02 163.965 13.072 163.965 11.896C163.965 10.024 164.661 8.572 166.053 7.54C167.469 6.484 169.305 5.956 171.561 5.956C173.337 5.956 175.209 6.304 177.177 7L176.493 11.284C175.797 10.876 175.005 10.552 174.117 10.312C173.253 10.048 172.437 9.916 171.669 9.916C170.877 9.916 170.241 10.048 169.761 10.312C169.305 10.576 169.077 10.96 169.077 11.464C169.077 11.944 169.269 12.304 169.653 12.544C170.037 12.784 170.685 13.06 171.597 13.372C172.317 13.636 172.737 13.792 172.857 13.84C173.865 14.248 174.705 14.644 175.377 15.028C176.049 15.412 176.637 15.988 177.141 16.756C177.645 17.5 177.897 18.46 177.897 19.636C177.897 21.604 177.189 23.08 175.773 24.064C174.357 25.048 172.485 25.54 170.157 25.54ZM190.24 25.54C187.24 25.54 184.876 24.676 183.148 22.948C181.444 21.22 180.592 18.82 180.592 15.748C180.592 13.756 180.964 12.028 181.708 10.564C182.452 9.076 183.496 7.936 184.84 7.144C186.208 6.352 187.804 5.956 189.628 5.956C192.316 5.956 194.38 6.82 195.82 8.548C197.26 10.276 197.98 12.772 197.98 16.036C197.98 16.588 197.968 16.996 197.944 17.26H185.704C185.944 18.532 186.496 19.504 187.36 20.176C188.224 20.824 189.388 21.148 190.852 21.148C191.74 21.148 192.664 21.04 193.624 20.824C194.584 20.584 195.424 20.272 196.144 19.888L196.972 23.956C196.012 24.46 194.944 24.844 193.768 25.108C192.616 25.396 191.44 25.54 190.24 25.54ZM193.12 13.444C193.048 12.412 192.688 11.596 192.04 10.996C191.392 10.372 190.528 10.06 189.448 10.06C188.416 10.06 187.564 10.36 186.892 10.96C186.244 11.56 185.836 12.388 185.668 13.444H193.12Z" fill="black"/>
</g>
<defs>
<filter id="filter0_d" x="0.484009" y="0.447998" width="201.496" height="33.344" filterUnits="userSpaceOnUse" color-interpolation-filters="sRGB">
<feFlood flood-opacity="0" result="BackgroundImageFix"/>
<feColorMatrix in="SourceAlpha" type="matrix" values="0 0 0 0 0 0 0 0 0 0 0 0 0 0 0 0 0 0 127 0"/>
<feOffset dy="4"/>
<feGaussianBlur stdDeviation="2"/>
<feColorMatrix type="matrix" values="0 0 0 0 0 0 0 0 0 0 0 0 0 0 0 0 0 0 0.25 0"/>
<feBlend mode="normal" in2="BackgroundImageFix" result="effect1_dropShadow"/>
<feBlend mode="normal" in="SourceGraphic" in2="effect1_dropShadow" result="shape"/>
</filter>
</defs>
</svg>
